<svg version="1.1" id="Layer_1" xmlns="http://www.w3.org/2000/svg" xmlns:xlink="http://www.w3.org/1999/xlink" x="0px" y="0px"
	 width="100%" viewBox="0 0 1024 1024" enable-background="new 0 0 1024 1024" xml:space="preserve">
<path fill="#000000" opacity="1.000000" stroke="none" 
	d="
M211.823929,714.265747 
	C217.269958,689.953796 228.654434,669.415710 246.429840,652.549927 
	C266.834534,633.189392 290.897003,622.764771 319.302521,624.830872 
	C334.086639,625.906250 345.938507,633.908020 355.941467,644.420410 
	C367.427460,656.491455 373.234680,670.919678 373.432831,687.742554 
	C373.582581,700.459595 372.186157,712.718811 365.298798,723.695007 
	C351.922852,745.012024 323.625275,759.516602 292.860596,745.805115 
	C288.457184,743.842529 284.159698,741.604797 279.953888,739.243835 
	C270.235107,733.787964 260.953949,735.868286 252.811142,741.933533 
	C245.612320,747.295715 245.812988,755.815002 246.664734,763.947327 
	C248.612793,782.546875 258.376160,797.281799 270.244110,810.896179 
	C286.598572,829.657166 307.222626,840.728760 331.915588,843.387695 
	C351.649872,845.512756 370.845947,842.237000 388.833801,833.785156 
	C449.048065,805.492432 487.795044,759.696228 501.419983,693.918518 
	C504.283630,680.093567 505.104340,665.972107 505.865479,651.831421 
	C506.941559,631.839600 507.090393,611.841797 506.463898,591.891541 
	C505.652954,566.069458 506.409882,540.238098 505.492065,514.446533 
	C504.010620,472.817169 503.573700,431.186768 503.591583,389.542328 
	C503.609222,348.556061 503.623138,307.569794 503.661469,266.583527 
	C503.671661,255.699478 502.806458,244.981064 498.273224,234.872345 
	C497.114685,232.288803 497.585236,230.029755 499.749054,228.127548 
	C503.786499,224.578232 508.010284,221.526093 513.555969,220.608185 
	C529.263794,218.008270 545.019958,217.705032 560.768616,219.762466 
	C571.110229,221.113510 575.044067,227.979446 571.172241,237.634949 
	C567.017578,247.995621 565.321838,258.706177 565.333862,269.798492 
	C565.374634,307.457764 565.091919,345.119415 565.422791,382.775848 
	C565.794495,425.083008 566.262756,467.398651 567.541626,509.684814 
	C568.257080,533.345093 567.492371,557.015015 568.548523,580.636902 
	C569.688416,606.131592 569.591431,631.614014 568.868713,657.080261 
	C568.353943,675.217773 568.438477,693.366699 567.427979,711.503540 
	C565.336853,749.034912 557.645203,784.838440 535.018005,815.788635 
	C503.340698,859.117737 460.956299,885.936218 408.023865,895.455444 
	C370.964325,902.120117 334.811981,898.223877 300.906586,881.772278 
	C259.461548,861.662292 231.759857,828.984375 217.655853,784.966797 
	C212.289093,768.217590 208.883881,751.158447 209.723969,733.491211 
	C210.022873,727.205017 211.049805,720.953369 211.823929,714.265747 
z"/>
<path fill="#000000" opacity="1.000000" stroke="none" 
	d="
M403.677185,216.024261 
	C406.022400,199.987045 407.966980,184.326538 411.737640,168.991913 
	C420.961761,131.479019 448.881805,111.459946 483.318085,106.636871 
	C516.641785,101.969612 546.548767,111.877754 573.327820,130.567001 
	C619.992798,163.134796 654.691345,206.030624 677.681885,258.106842 
	C686.307861,277.645813 690.735596,298.385223 689.203430,319.832520 
	C687.390015,345.214966 678.880310,368.042847 659.397400,385.388702 
	C647.152649,396.290436 632.231689,401.985687 616.067200,404.280151 
	C612.664551,404.763092 609.280945,405.638245 605.681091,404.667450 
	C599.496765,402.999603 594.287842,398.197113 593.505127,392.803680 
	C592.827515,388.134430 596.016235,382.700378 601.945374,379.820251 
	C612.531006,374.678131 618.713196,365.993652 622.812866,355.398163 
	C627.475403,343.348114 628.173706,330.784424 627.866943,318.063141 
	C627.260925,292.922577 620.394287,269.147552 611.507263,245.949310 
	C597.610840,209.674881 577.538879,177.348404 548.249084,151.328659 
	C537.294739,141.597321 525.313599,133.620819 510.108704,132.139481 
	C496.250854,130.789368 485.844757,136.605804 478.147369,147.671814 
	C469.859070,159.587341 466.708923,173.408463 464.380859,187.407181 
	C460.667053,209.738846 459.580383,232.310043 458.177399,254.877045 
	C455.714661,294.489990 456.479309,334.123840 456.358490,373.755676 
	C456.312286,388.910736 457.841919,404.030914 457.411987,419.204376 
	C457.281189,423.819366 458.567047,424.534851 462.802460,422.543365 
	C465.175964,421.427338 467.123566,421.764984 469.423431,422.774933 
	C480.009125,427.423798 484.824860,445.280060 475.637390,454.263123 
	C472.407654,457.421021 469.463501,461.054474 465.184570,462.613434 
	C459.869476,464.549957 458.982330,468.175201 459.344879,473.179810 
	C461.450989,502.252197 462.006348,531.379517 462.395355,560.518799 
	C462.873444,596.329651 463.491882,632.141724 464.519196,667.939819 
	C464.767181,676.580933 465.174286,685.233643 465.433594,693.885803 
	C465.526215,696.975159 464.645203,698.504822 461.553894,699.744324 
	C445.217896,706.294678 428.744598,711.823364 410.741302,710.424683 
	C408.049164,710.215515 405.432983,709.951599 402.970551,708.863708 
	C397.424133,706.413147 395.802856,703.145081 397.590942,697.332764 
	C402.955139,679.895935 406.314240,662.136292 405.603668,643.839233 
	C404.525299,616.070312 402.931488,588.320618 401.958191,560.548706 
	C401.398499,544.578430 400.671112,528.624817 399.655182,512.680725 
	C399.521667,510.585114 400.215546,508.074249 397.817596,506.852112 
	C395.369263,505.604309 393.809021,507.811584 392.087769,508.932037 
	C372.557098,521.645081 353.787689,535.564392 332.881256,546.091492 
	C324.068451,550.529053 314.947357,554.038086 305.240234,555.973938 
	C289.984161,559.016296 272.492493,550.032471 266.865967,536.198547 
	C264.120148,529.447449 265.656311,525.769287 272.816254,524.662231 
	C304.314789,519.791992 330.490997,502.975067 357.257050,487.483124 
	C368.065948,481.227020 378.428894,474.169525 389.423309,468.276184 
	C396.125427,464.683685 398.160309,460.156311 397.764587,452.751312 
	C395.603821,412.317505 395.096893,371.829346 395.805603,331.353851 
	C396.233551,306.913971 397.341278,282.477142 399.375763,258.083862 
	C400.535797,244.175873 402.268890,230.345566 403.677185,216.024261 
z"/>
<path fill="#000000" opacity="1.000000" stroke="none" 
	d="
M727.566528,661.548584 
	C710.328796,682.899353 689.673340,699.876282 667.484619,715.142822 
	C663.924011,717.592651 660.502258,720.246582 657.049683,722.850464 
	C652.789185,726.063843 648.199036,727.358826 643.007080,725.436340 
	C640.980469,724.685913 638.910034,724.029724 636.944885,723.141724 
	C628.482971,719.318054 619.964050,717.813171 610.799622,720.913452 
	C604.876465,722.917236 602.344299,721.017883 602.750366,714.884277 
	C603.838013,698.455444 604.797424,682.024902 605.329224,665.568848 
	C605.377563,664.073242 605.616516,662.581909 605.631165,661.087280 
	C605.972656,626.102600 606.660583,591.116150 606.511047,556.133362 
	C606.382202,525.992920 605.413696,495.853271 604.567444,465.720276 
	C604.273438,455.252991 603.439148,444.787048 602.447815,434.358887 
	C601.942993,429.048920 603.964417,426.280518 608.905884,424.828369 
	C620.753540,421.346649 632.852173,419.110413 645.116821,418.191681 
	C668.192383,416.463104 691.132202,416.936340 712.636108,427.030273 
	C739.462341,439.622620 755.749695,461.504456 765.218140,488.828796 
	C772.098816,508.685608 773.842468,529.188049 772.521240,550.226440 
	C769.878479,592.309082 753.976257,628.800049 727.566528,661.548584 
M657.344910,651.515503 
	C657.753296,654.706360 656.347961,658.111450 658.280518,661.161621 
	C661.588501,660.107910 661.612915,660.130310 664.386414,657.106384 
	C682.241211,637.638977 696.450867,615.837769 705.751770,591.060364 
	C719.792053,553.657654 723.427490,515.474121 712.547913,476.632172 
	C707.205017,457.557037 696.223572,443.314270 675.842651,438.251373 
	C660.549438,434.452240 658.034912,436.147064 658.302673,451.948059 
	C658.781982,480.235504 659.892090,508.514587 660.162354,536.802673 
	C660.524902,574.749512 659.595337,612.682739 657.344910,651.515503 
z"/>
<path fill="#000000" opacity="1.000000" stroke="none" 
	d="
M585.791077,761.258362 
	C591.833984,744.493530 605.855164,734.733582 622.000854,735.720825 
	C637.863403,736.690857 650.790344,748.015259 654.484253,764.177307 
	C658.848572,783.272705 647.515991,801.857178 628.516296,806.762390 
	C610.494263,811.415283 590.873352,799.813782 585.789917,781.357117 
	C583.997742,774.850342 584.022278,768.235657 585.791077,761.258362 
z"/>
<path fill="#000000" opacity="1.000000" stroke="none" 
	d="
M566.007446,827.650330 
	C584.330933,827.539124 602.444641,843.162659 601.509583,864.632202 
	C600.738647,882.332520 588.579651,896.872375 571.030518,899.207153 
	C554.098328,901.459839 537.207214,890.522217 532.445862,874.222107 
	C525.828125,851.567078 542.450256,828.178467 566.007446,827.650330 
z"/>
</svg>