<svg width="400" height="300" viewBox="0 0 400 300" fill="none" xmlns="http://www.w3.org/2000/svg">
  <rect width="400" height="300" fill="#F8FAFC"/>
  <rect x="50" y="50" width="300" height="200" rx="8" fill="#E2E8F0"/>
  
  <!-- Ruby Logo/Icon -->
  <circle cx="200" cy="120" r="30" fill="#DC2626"/>
  <path d="M185 105 L200 90 L215 105 L215 135 L200 150 L185 135 Z" fill="#FFFFFF"/>
  
  <!-- Code blocks -->
  <rect x="80" y="170" width="80" height="8" rx="4" fill="#94A3B8"/>
  <rect x="170" y="170" width="60" height="8" rx="4" fill="#94A3B8"/>
  <rect x="240" y="170" width="80" height="8" rx="4" fill="#94A3B8"/>
  
  <rect x="80" y="190" width="100" height="8" rx="4" fill="#CBD5E1"/>
  <rect x="190" y="190" width="70" height="8" rx="4" fill="#CBD5E1"/>
  
  <rect x="80" y="210" width="60" height="8" rx="4" fill="#CBD5E1"/>
  <rect x="150" y="210" width="90" height="8" rx="4" fill="#CBD5E1"/>
  
  <!-- Title -->
  <text x="200" y="40" text-anchor="middle" fill="#1E293B" font-family="system-ui" font-size="20" font-weight="600">Ruby Learning Challenges</text>
</svg>